<svg aria-hidden="true" 
style="position:absolute;width:0;height:0;overflow:hidden" 
xmlns="http://www.w3.org/2000/svg">
<defs>
<symbol id="icon-logo_dark" viewBox="0 0 117 32">
<path fill="#fff" style="fill:var(--color1, #fff)" d="M63.142 25.124a16.413 16.413 0 0 1-1.22-1.894c-.322-.529-.966-1.245-1.643-1.45 1.677-.239 2.355-1.553 2.355-2.764 0-2.116-1.813-2.781-3.693-2.781H53.74v.171h.203c.491 0 .881.375.898.887v8.104c-.017.512-.424.904-.898.904h-.203v.171h4.659v-.171h-.186a.903.903 0 0 1-.915-.921v-8.446c.186 0 .525-.017.966 0 .576.034 1.728.273 1.796 1.962a2.6 2.6 0 0 1-.051.717c-.288 1.433-1.067 1.689-1.762 1.706h-.44v.136c.322.017.728.324 1.016 1.041.152.58.762 1.723 1.135 2.337.813 1.263 1.677 1.621 3.507 1.621h1.423v-.171c-.695 0-1.084-.239-1.745-1.16z"/>
<path fill="#fff" style="fill:var(--color1, #fff)" d="M73.717 19.05c-.051-1.587-1.22-2.832-3.931-2.832h-5.015v.171h.203a.9.9 0 0 1 .915.904v8.104c-.017.512-.407.904-.915.904h-.203v.154h4.693v-.171h-.203c-.542 0-.915-.375-.932-.887V16.9h.779c1.254 0 1.999.785 2.033 2.03 0 .256-.034.614-.101.904-.508 1.911-2.168 1.723-2.168 1.723v.154c2.219 1.501 4.946.051 4.845-2.662zM85.151 17.309c0-.529.423-.921.932-.921h.186v-.171h-4.676v.171h.186c.508 0 .915.392.932.921v3.72h-4.455v-3.737a.925.925 0 0 1 .932-.904h.186v-.171h-4.676v.171h.186c.491 0 .915.392.915.921v8.07a.913.913 0 0 1-.915.921l-.186-.017v.171h4.676v-.171l-.186.017a.925.925 0 0 1-.932-.904v-3.702h4.455v3.702a.925.925 0 0 1-.932.904h-.186v.171h4.659V26.3h-.186a.9.9 0 0 1-.915-.904v-8.087zM95.775 23.332c-.441 1.501-1.423 2.423-2.847 2.44h-2.049v-4.044h1.948c.796.034 1.271.597 1.271 1.348v.119h.186v-3.6h-.186v.102c0 .768-.491 1.331-1.287 1.348H90.88v-4.129h2.439c.983.017 1.542.631 1.542 1.604v.171h.186v-2.73c-.271.102-1.135.256-1.761.256h-5.963v.171h.203a.91.91 0 0 1 .915.904v8.104a.906.906 0 0 1-.915.887h-.203v.171h7.962l.661-3.122h-.169zM107.895 16.217h-3.134v.154h.237c.424 0 .762.307.779.734v5.75c-.017 1.979-1.067 3.156-2.829 3.156-1.728 0-2.745-1.245-2.745-3.344v-5.545c.017-.444.339-.751.762-.751h.255v-.154h-4.456v.154h.22c.423 0 .779.307.779.751v5.648c0 2.44 1.592 3.907 4.862 3.907 2.711 0 4.269-1.484 4.269-3.941v-5.63c0-.427.356-.734.763-.734h.237v-.154zM112.165 19.374c-.661-.358-1.152-.717-1.101-1.365.05-.768.762-1.314 1.847-1.314 1.355 0 2.117.665 2.117 1.706h.136l.203-1.945.034-.29h-.915a21.844 21.844 0 0 0-2.202-.154c-1.728 0-2.913.955-3.049 2.576-.136 1.177.356 2.201 1.49 2.798l2.406 1.536c.915.461 1.271.938 1.271 1.536 0 .836-.644 1.536-1.965 1.553-1.796 0-2.897-1.297-2.795-2.832h-.136c-.407.648-.626 1.945-.373 2.593.491.529 1.66.904 3.117.904 2.355 0 3.88-1.16 3.981-3.088.085-1.211-.491-2.082-1.389-2.559l-2.677-1.655zM47.52 14.486c-3.927-1.06-7.061.567-8.043 4.259-.987 3.708.924 6.679 4.851 7.739s7.04-.555 8.027-4.263c.982-3.692-.908-6.675-4.835-7.734zm-3.008 11.306c-2.307-.623-3.224-3.043-2.356-6.306.873-3.28 2.868-4.914 5.176-4.291s3.208 3.038 2.335 6.318c-.868 3.263-2.848 4.902-5.155 4.279z"/>
<path fill="none" stroke="#000" style="stroke:var(--color2, #000)" stroke-linecap="round" stroke-width=".711" d="M16.483 28.991c7.041-.812 12.508-6.812 12.508-14.093 0-7.835-6.331-14.187-14.14-14.187S.711 7.063.711 14.898a14.19 14.19 0 0 0 6.752 12.099"/><path fill="#fff" style="fill:var(--color1, #fff)" d="M22.826 15.383c-.041-.373.007-.908-.089-1.204l-.003-.02c-.207.82.051 1.727-.375 2.487-.359.479-.348 1.052-.312 1.616.022.944.095 1.889.091 2.832-.118.731-.837-.003-1.238.161-.388.214-.712-.053-.801-.435-.223.448-.044.822.37 1.016.165.105.203.52-.083.468-.73-.12-1.279.343-1.954.465.451.241 1.738-.489 1.663.383-.038.455-.685.201-.814.626.496.413.24 1.2-.348 1.392-1.897.331-3.73-.841-5.352-1.655-1.228-.759-1.874-2.083-2.122-3.428-.112-.286 1.052.265 1.228-.01-2.184-.236-2.95-5.858-.02-3.775.275.31.415.706.505 1.1 0 .348.753-.5 1.595-.046 1.113.37 1.743-.699 2.558-1.199.726-.498 1.539-.894 2.188-1.483.289-.25-.766-.048-.92-.437-.384-.416-.978-.663-1.488-.306-.403.312-1.054.76-1.119 1.234.922-1.068 1.488-1.253 2.667-.395.155.047.121.124.041.196-.216.204-.509.092-.76.031-.661-.281-1.49-.088-1.57.675.183-.343 1.188-.768 1.278-.296-.874.624-1.563 1.924-2.819 1.621-.432-.122-1.008-.272-1.25-.64.633.277 1.559.489 2.066-.09-2.313 1.082-2.598-2.7-4.318-1.577.69-.076 1.838 1.142.744.843-.846-.306-1.336.851-2.112.414-.73-.566.441-.036.591-.517.084-.105.008-.183-.105-.127-.794.209-.903-.02-1.442-.375-.007.105.202.463-.018.424-.184.01-.75-.458-.517-.094.425.473 1.469.915 1.171 1.65-.336-.454-.371-.484-.623-.535.149.283.289.56.273.883-.326-.309-.386-.888-.939-1.006-.219-.078-.518-.32-.468-.55.344.222.572.344.875.251-.402-.331-.973-.519-1.041-1.183.051-.232-.529-1.119-.248-1.084.203.12.357.304.439.52.994 1.278.693.161.102-.479-.188-.333-1.344-1.144-1.268-.359.245.738.593 1.52.326 2.3-.419.929-.612-.489-.677-.856-.092-.252-.032-.639-.193-.821-.117.142-.063.412-.074.598.24 1.329-.095 3.323.962 4.49.146.828.556 1.561 1.39 1.956.431.764.145 1.89.139 2.768-.142 1.779-1.267 3.185-2.262 4.61-2.491 4.886 1.027-.546 5.845 1.156 2.179.706 4.14 1.984 6.433 2.362 1.982.538-3.038-2.308-3.246-2.868-.298-.978.249-2.125.325-3.144.061-.317-.009-.33.411-.312.931.049 1.876.101 2.798-.068 1.514-.253.433-1.612 1.181-1.95.409-.082.242-.524.269-.795.047-.125.222-.096.334-.155.443-.194-.143-.953.523-.956.56.081 1.302.1 1.221-.657-.005-1.059-.109-2.115-.117-3.174-.016-.869.674-1.572.5-2.471zM8.43 19.875c-.699-.536-1.539-1.067-1.393-2.052.285.45.394.9.863 1.206.162.062.922 1.022.529.846zm.251-1c-.723-.17-1.019-.772-1.18-1.42-.016-.387-1.071-1.504-.063-.851.063.05.092.138.186.149.042-.118-.222-.489.036-.358.955.489.348 1.609 1.028 2.265.106.071.227.289-.006.216zm6.525 6.677c-.247 1.032-.386 2.081-.573 3.124-.424.361-1.234-.28-1.614-.564-.641-.451-2.642-3.098-1.692-.733.026.244.502.921.078.955-1.576-.817-1.731-3.117-1.055-4.562.343-.618 1.062-.5 1.544-.107.947.854 2.344 1.225 3.313 1.888zm1.156-9.875c.003 0 .006 0 .003-.005l-.004.005h.001zm-7.808-.861h.004s-.003-.002-.004 0zM23.543 11.498c-.355-.799-.848-1.806-1.886-1.825-.12.012-.169-.067-.166-.173.047-.978-4.043 1.504-4.669 1.643-.525.194.928-.98 1.038-1.144 1.152-.958 2.135-2.488 3.661-2.848.156.08.225-.031.219-.178.247-.893-.736-1.299-1.497-1.374-.762-.002-1.05.912-1.477 1.393-.118.2-.244.392-.46.165-.76-.484-1.508-1.001-2.451-1.082.663.316 1.621.597 1.873 1.268-.21-.092-.367-.32-.611-.306.109.109.354.756.106.531-.365-.577-.997-.92-1.624-1.175-1.105-.428-1.686.973-3.882.747 1.368.64 3.08-.88 4.404.158-.039-.278-.408-.322-.543-.546.812.104 1.066.881 1.548 1.406.392.485.015.157-.256.075.129.268.502.55.362.831-.149.181-.837-1.125-1.279-1.235-.88-.608-1.972-.359-2.875.064-.964.448-1.843-.687-2.792-.221-.756.197-1.044 1.143-1.745 1.298-1.718-.063.721-.703.953-1.237.253-.311.628-.44.94-.668-.285-.056-.502.153-.763.169.227-.465.871-.638 1.373-.689.57-.048 1.135.068 1.703.085 3.28-.437.083-1.195-1.187-.758.438.057.842.111 1.182.351-1.417-.2-3.065-.014-3.723 1.429-.16.406-.7.317-.923.672-.4.503-.71 1.066-1.062 1.598-.239.602-1.305 2.195-.46 2.925.216-.404.552-.721 1.084-.514.918.557.141-.767-.402-.504-1.234.577.185-.48.409-.733-.335.05-.561.336-.861.421.184-.952.747-1.421 1.533-1.998.55-.546.817 1.03 1.357.198.308-.65 1.123-.808 1.628-1.141-.462-.025-.903.181-1.279.422-.039.025-.077.076-.147.012.601-.886 1.277-1.054 2.286-.691 1.203.176 1.419-.838 2.783.15.281.193 1.856 1.42 1.238 1.614-.932.244-1.576-1.493-2.556-.957-.781.821-1.369 1.327-2.586.949-1.193-.042-.911.756-2.513.233-.285.068-.635.164-.803.397.626-.063 1.275-.135 1.697.446.343.494 1.098.652 1.513.116-.244.078-.899.153-.876-.136a.902.902 0 0 0 .555-.346c.29-.384.791-.038 1.162.036 1.047.38 1.278-1.168 2.191-1.173.361.034.742.183.981.454-.445-.043-.929-.244-1.332.071-.265.272.882-.055.931.302-.743.055-1.692.086-2.23.604.748-.315 1.28.463 2.011.296-1.962-.568.02-.981.725-.377 1.488-.438 2.588-1.962 3.504-3.155.669-.686 1.208-2.312 2.355-1.451.317.149-1.728 1.748-1.941 2.118-.905.899-1.817 1.808-2.895 2.518-.408.328-1.004.464-1.402.703 1.173.242 2.279-.431 3.352-.793 1.436-.382 3.581-1.788 4.702-.235.482.585.711 1.467.5 2.194-.053.079.019.144.101.086.3-.082.319-1.253.197-1.484zM12.741 6.223c.005 0-.015.011-.015.012l.015-.012zm3.956 3.423c-.717-.611-1.239-1.62-2.32-1.891.59-.179 1.087-.066 1.519.312.268.333 1.362 1.222.801 1.579v-.001zm.618-1.198c-.018-.007-.021-.019-.009-.034.012.01.024.024.009.035v-.001zm-1.19-1.145-.005-.004-.003.01.008-.006zm-2.566 2.992c0-.006 0-.007-.006-.006l.006.006zm-5.894.792v.01l.009-.002-.009-.008z"/>
<path fill="#fff" style="fill:var(--color1, #fff)" d="M16.025 14.489c-.37.751-1.218.875-1.97.615.089.417.655.659 1.069.569-2.01 1.314-1.733-3.487-4.173-1.426-.409.45-.958 1.003-1.558.559-.307-.083-1.076-1.226-.36-.834 1.56.754 1.957-2.028 3.357-1.399-.164.162-.504.165-.639.419-.153.174.512.092.638.32 1.024.999 2.184 2.311 3.636 1.176z"/>
<path fill="#fff" style="fill:var(--color1, #fff)" d="M13.739 11.88c.865 1.25 2.575.513 3.518 1.429-1.22-.685-2.725.842-3.71-.422-.352-.567-.696-1.192-1.481-1.168-.909-.048-1.2.945-1.741 1.464-.817.952-2.016.264-1.953-.868.91 1.965 1.945.258 2.893-.574.978-.732 1.902.221 2.489.949.38.397 1.067.616 1.578.357-.697-.185-1.382-.352-1.593-1.169zM21.45 16.635c-1.054-.101-2.131.272-3.139.531.356.942 1.407.116 2.128.129.11-.056.557.068.32.158-.405-.045-.781.105-1.152.24-.674.122.099.689.33.909.477.509 2.384-1.767 1.514-1.967zm-.829 1.367c-.032.738-1.241.066-.941-.185.237-.046.947-.25.941.185zM22.249 11.507c-.914-1.067-1.053.248-2.004.321.751.635 1.458-.999 1.94.211-.56-.642-1.037.314-1.651.13-.373-.159-.841-.212-1.113-.529-.149-.193-.345-.181-.551-.151-.117.094-.986.214-.704-.008a.994.994 0 0 0 .48-.299c.485-.34 1.108.336 1.658.306.661.053 1.133-1.742 1.945.02z"/>
<path fill="#fff" style="fill:var(--color1, #fff)" d="M13.466 13.515c1.598 1.339 1.826-.233 3.292-.096-.022.075-.069.077-.108.083-.451.067-.71.437-1.022.716-.741.824-1.915.211-2.162-.704zM20.737 13.287c.054.125.184.127.256.2-1.213-.112-.662-1.134-2.659-.818 1.67-.889 1.989.354 2.713.25.25-.095.511-.254.685.072-.398-.149-.644.195-.996.296zM11.227 17.011c.104-1.095 1.537-.606 1.168.33-.032.048-.032.144.049.129.365-.267.243.249.14.414-.223.336-.855.134-.732-.294.017-.259.347-.542.154-.782-.289-.281-.567.035-.778.204zM11.873 8.895c.467.343.934-.106 1.412-.085-.529.407-1.025 1.222-1.766.661-.417-.299-.861.087-1.263.177.142-.328.346-.468.675-.469.347-.058 1.348.481 1.396 0-.165-.077-.372-.111-.454-.284zM20.618 13.801c-.711.295-1.103-.492-1.804-.392-.544.076.577.777.766.84-.506.051-.794-.298-1.083-.646-.07-.106-.475-.182-.212-.27 1.262-.518 1.317.236 2.333.468zM19.219 9.383c.503-.575 1.379-.971 2.069-1.375.297-.194.573.412.271.469-.834.101-1.625.509-2.344.906h.004zM9.069 12.067c.113.054.225.113.389.069-.194-.172-.432-.275-.488-.509.448.407 1.013.373 1.568.306-.166.586-1.299.793-1.469.135zM16.684 11.888c.676.134 1.216.178 1.865.093-.448.703-1.322.529-1.865-.093zM11.659 18.335c.298.251.621.185.964.089.246 1.056-1.268.252-1.256-.365 0 0 .179.196.291.276zM22.32 12.997c-.513-.629-1.017-.283-1.582-.482.529-.143 1.504-.336 1.582.482zM7.672 11.094l.046-.03c.009.06-.063.007-.046.03zM16.117 7.311c.019-.002.038.003.053.014s.026.027.029.045c-.026-.016-.057-.074-.083-.06zM22.274 12.121c-.028-.02-.058-.089-.088-.082.052.007.056.056.088.082z"/>
<path fill="#fff" style="fill:var(--color1, #fff)" d="m9.076 12.073-.022.009c.006-.003.018-.022.022-.009zM16.02 14.495l-.003-.023c.002.005.013.019.003.023zM8.554 14.816l.015-.019c-.005.005-.007.02-.015.019zM13.753 11.882l-.019.015c.046.016-.013-.022.019-.015zM8.985 11.629l-.02.016c.048.019-.009-.024.02-.016zM22.238 11.501c.042-.008.009.034.021-.005.004-.013-.014-.013-.01.011l-.01-.006zM15.071 10.996l.007.019c-.004-.006-.021-.014-.007-.019zM13.553 10.288c-.019.037.037.005-.002.021-.032.011-.021-.031.009-.015l-.006-.006zM11.886 8.9c-.042.009-.007-.036-.015.004-.002.01.014.009.005-.009l.011.005zM16.201 7.364l.004.015c.025-.028-.006-.004-.004-.015zM22.263 12.115l.017-.003c-.029-.029.004.02-.017.003z"/>
</symbol>
<symbol id="icon-web" viewBox="0 0 32 32">
<path d="M16.32 8.96a7.36 7.36 0 1 0 0 14.72 7.36 7.36 0 1 0 0-14.72zm4.95 3.587a6.198 6.198 0 0 1 1.274 3.641c-1.268-.24-2.735-.357-4.291-.043a27.98 27.98 0 0 0-.591-1.287c1.831-.766 2.997-1.715 3.607-2.311zm-.77-.839c-.53.512-1.619 1.403-3.371 2.123a28.998 28.998 0 0 0-2.281-3.561 6.212 6.212 0 0 1 5.652 1.437zm-6.777-1.046a27.747 27.747 0 0 1 2.33 3.556c-1.527.482-3.445.804-5.804.721a6.251 6.251 0 0 1 3.474-4.278zm-3.631 5.658c0-.085.003-.17.007-.254.315.013.625.021.926.021 2.239 0 4.081-.345 5.572-.835.196.393.378.789.553 1.187-1.774.594-3.627 1.815-5.407 4.097a6.201 6.201 0 0 1-1.65-4.217zm2.492 4.979c1.659-2.149 3.359-3.283 4.998-3.814.594 1.531 1.017 3.066 1.241 4.536a6.19 6.19 0 0 1-2.503.527 6.198 6.198 0 0 1-3.736-1.248zm7.293.129a23.154 23.154 0 0 0-1.188-4.217c1.337-.233 2.615-.116 3.776.115a6.234 6.234 0 0 1-2.589 4.102z"/>
<path fill="none" stroke="#000" style="stroke:var(--color2, #000)" stroke-width=".64" d="M.32.32h31.36v31.36H.32V.32z"/>
</symbol>
<symbol id="icon-instagram" viewBox="0 0 32 32">
<path fill="none" stroke="#000" style="stroke:var(--color2, #000)" stroke-width=".64" d="M.32.32h31.36v31.36H.32V.32z"/>
<path d="M13.049 8.96a4.093 4.093 0 0 0-4.089 4.089v6.542a4.093 4.093 0 0 0 4.089 4.089h6.542a4.093 4.093 0 0 0 4.089-4.089v-6.542a4.093 4.093 0 0 0-4.089-4.089h-6.542zm0 1.636h6.542a2.456 2.456 0 0 1 2.453 2.453v6.542a2.456 2.456 0 0 1-2.453 2.453h-6.542a2.456 2.456 0 0 1-2.453-2.453v-6.542a2.456 2.456 0 0 1 2.453-2.453zm7.36.817a.82.82 0 0 0-.578 1.396.818.818 0 1 0 .578-1.396zm-4.089.818c-2.255 0-4.089 1.834-4.089 4.089s1.834 4.089 4.089 4.089c2.255 0 4.089-1.834 4.089-4.089s-1.834-4.089-4.089-4.089zm0 1.636c1.353 0 2.453 1.101 2.453 2.453s-1.101 2.453-2.453 2.453c-1.353 0-2.453-1.101-2.453-2.453s1.101-2.453 2.453-2.453z"/>
</symbol>
<symbol id="icon-medium" viewBox="0 0 32 32">
<path d="m8.396 7.172 1.343 1.746v8.294l-2.015 2.645h4.702l-2.015-2.645V9.829l4.366 10.028-.001.005 4.031-10.103v8.727l-1.343 1.371h5.709l-1.343-1.371-.009-9.77 1.307-1.539h-4.036l-3.103 7.793-3.395-7.798H8.397z"/>
<path fill="none" stroke="#000" style="stroke:var(--color2, #000)" stroke-width=".552" d="M2.483.276h27.034V27.31H2.483V.276z"/>
</symbol>
<symbol id="icon-mail" viewBox="0 0 32 32">
<path stroke-width=".64" d="M.32.32h31.36v31.36H.32V.32z"/>
<path stroke-linejoin="round" stroke-linecap="round" stroke-width="1.28" d="M24.32 11.76c0-.836-.72-1.52-1.6-1.52H9.92c-.88 0-1.6.684-1.6 1.52m16 0v9.12c0 .836-.72 1.52-1.6 1.52H9.92c-.88 0-1.6-.684-1.6-1.52v-9.12m16 0-8 5.32-8-5.32"/>
</symbol>
<symbol id="icon-linkedin" viewBox="0 0 32 32">
<path fill="none" stroke="#000" style="stroke:var(--color2, #000)" stroke-width=".64" d="M.32.32h31.36v31.36H.32V.32z"/>
<path d="M9.767 8.96c-1.207 0-2.084.712-2.084 1.691 0 .983.897 1.726 2.084 1.726 1.207 0 2.084-.726 2.084-1.746-.056-.983-.915-1.671-2.084-1.671zm-1.739 4.105a.346.346 0 0 0-.348.342v9.93c0 .188.157.342.348.342h3.478a.346.346 0 0 0 .348-.342v-9.93a.346.346 0 0 0-.348-.342H8.028zm6.497 0a.346.346 0 0 0-.348.342v9.93c0 .188.156.342.348.342h3.13a.345.345 0 0 0 .348-.342V18.03c0-.811.633-1.473 1.44-1.534.042-.007.083-.007.125-.007s.083 0 .125.007c.807.062 1.44.723 1.44 1.534v5.307c0 .189.156.342.348.342h3.13a.346.346 0 0 0 .348-.342v-5.821c0-2.215-1.207-4.451-3.899-4.451a4.751 4.751 0 0 0-2.709.853v-.51a.346.346 0 0 0-.348-.342h-3.478z"/>
</symbol>
<symbol id="icon-Sun" viewBox="0 0 32 32">
<path fill="none" stroke="#fff" style="stroke:var(--color1, #fff)" stroke-miterlimit="10" stroke-width="1.545" d="M20.84 15.989c0 2.671-2.163 4.834-4.829 4.834s-4.829-2.164-4.829-4.834c0-2.671 2.163-4.834 4.829-4.834s4.829 2.164 4.829 4.834z"/>
<path fill="#fff" style="fill:var(--color1, #fff)" d="M17.178 8.482h-2.336l-.467-4.068h3.27l-.468 4.068zM22.156 11.53 20.51 9.871l2.556-3.198 2.304 2.323-3.213 2.534zM23.501 17.213l.017-2.338 4.068-.438-.024 3.273-4.061-.497zM20.42 22.172l1.67-1.635 3.176 2.581-2.338 2.289-2.508-3.235zM14.733 23.477l2.336.035.408 4.074-3.27-.048.527-4.061zM9.801 20.357l1.621 1.683L8.82 25.2l-2.27-2.357 3.25-2.486zM8.539 14.655l-.051 2.337-4.074.378.072-3.273 4.053.557zM11.693 9.741l-1.694 1.61-3.138-2.628 2.371-2.255 2.46 3.272z"/>
</symbol>
</defs>
</svg>